<svg width="18" height="18" viewBox="0 0 18 18" fill="none" xmlns="http://www.w3.org/2000/svg">
<path d="M6.05199 11.8927H12.2316V5.71312H6.05199V11.8927ZM9.14726 17.0423C8.01112 17.0423 6.94343 16.8261 5.94418 16.3935C4.94493 15.9609 4.07109 15.3704 3.32268 14.622C2.57426 13.8736 1.98377 12.9993 1.5512 11.999C1.11863 10.9987 0.902344 9.92992 0.902344 8.79261C0.902344 7.65531 1.11863 6.58652 1.5512 5.58626C1.98377 4.58598 2.57426 3.71506 3.32268 2.97351C4.07109 2.23196 4.94544 1.6449 5.94572 1.21233C6.94599 0.779762 8.01478 0.563477 9.15208 0.563477C10.2894 0.563477 11.3582 0.779762 12.3584 1.21233C13.3587 1.6449 14.2296 2.23196 14.9712 2.97351C15.7127 3.71506 16.2998 4.58707 16.7324 5.58953C17.1649 6.592 17.3812 7.6613 17.3812 8.79743C17.3812 9.93357 17.1649 11.0013 16.7324 12.0005C16.2998 12.9998 15.7127 13.8723 14.9712 14.6182C14.2296 15.3641 13.3576 15.9546 12.3552 16.3897C11.3527 16.8248 10.2834 17.0423 9.14726 17.0423ZM9.15208 15.8064C11.0952 15.8064 12.7465 15.1232 14.106 13.7569C15.4655 12.3905 16.1453 10.7357 16.1453 8.79261C16.1453 6.84948 15.4668 5.19816 14.1099 3.83865C12.753 2.47915 11.0969 1.79939 9.14178 1.79939C7.20551 1.79939 5.55419 2.47785 4.18782 3.83478C2.82145 5.19172 2.13826 6.84776 2.13826 8.80291C2.13826 10.7392 2.82145 12.3905 4.18782 13.7569C5.55419 15.1232 7.20895 15.8064 9.15208 15.8064Z" fill="white"/>
</svg>
